<?xml version="1.0" encoding="utf-8"?>
<!-- Generator: Adobe Illustrator 17.1.0, SVG Export Plug-In . SVG Version: 6.00 Build 0)  -->
<!DOCTYPE svg PUBLIC "-//W3C//DTD SVG 1.1//EN" "http://www.w3.org/Graphics/SVG/1.1/DTD/svg11.dtd">
<svg version="1.1" id="Layer_1" xmlns="http://www.w3.org/2000/svg" xmlns:xlink="http://www.w3.org/1999/xlink" x="0px" y="0px"
	 viewBox="0 0 48 39.009" enable-background="new 0 0 48 39.009" xml:space="preserve">
<path fill="#303030" d="M48,4.618c-1.766,0.783-3.664,1.313-5.656,1.551c2.033-1.219,3.595-3.149,4.33-5.448
	c-1.903,1.129-4.01,1.948-6.253,2.39C38.624,1.196,36.065,0,33.232,0c-5.439,0-9.848,4.409-9.848,9.848
	c0,0.772,0.087,1.523,0.255,2.244C15.455,11.681,8.199,7.761,3.342,1.803C2.494,3.257,2.008,4.949,2.008,6.753
	c0,3.416,1.739,6.431,4.381,8.197c-1.614-0.051-3.133-0.494-4.46-1.232c-0.001,0.041-0.001,0.082-0.001,0.124
	c0,4.771,3.395,8.752,7.9,9.656c-0.826,0.225-1.696,0.345-2.595,0.345c-0.635,0-1.251-0.062-1.853-0.177
	c1.253,3.912,4.89,6.76,9.199,6.839c-3.37,2.641-7.617,4.215-12.23,4.215c-0.795,0-1.579-0.047-2.349-0.138
	c4.358,2.794,9.534,4.424,15.096,4.424c18.114,0,28.019-15.006,28.019-28.019c0-0.427-0.01-0.852-0.028-1.274
	C45.01,8.327,46.68,6.593,48,4.618z"/>
<path fill-rule="evenodd" clip-rule="evenodd" fill="#303030" d="M28.997,57.131c-13.252,0-23.998,10.745-23.998,24.001
	c0,10.603,6.876,19.598,16.414,22.772c1.2,0.22,1.638-0.521,1.638-1.157c0-0.57-0.021-2.079-0.032-4.082
	c-6.676,1.45-8.085-3.217-8.085-3.217c-1.091-2.773-2.665-3.511-2.665-3.511c-2.179-1.489,0.165-1.459,0.165-1.459
	c2.408,0.17,3.676,2.473,3.676,2.473c2.141,3.668,5.617,2.609,6.985,1.994c0.218-1.551,0.838-2.609,1.524-3.208
	c-5.329-0.606-10.932-2.665-10.932-11.862c0-2.62,0.935-4.762,2.47-6.44c-0.247-0.607-1.07-3.047,0.235-6.352
	c0,0,2.015-0.645,6.6,2.46c1.914-0.532,3.967-0.799,6.008-0.808c2.038,0.009,4.091,0.276,6.008,0.808
	c4.582-3.106,6.593-2.46,6.593-2.46c1.309,3.304,0.486,5.744,0.239,6.352c1.538,1.678,2.467,3.82,2.467,6.44
	c0,9.22-5.611,11.249-10.958,11.843c0.862,0.741,1.629,2.206,1.629,4.444c0,3.208-0.029,5.797-0.029,6.584
	c0,0.642,0.432,1.388,1.65,1.154c9.529-3.18,16.399-12.169,16.399-22.769C52.998,67.876,42.252,57.131,28.997,57.131z"/>
<g>
	<polygon fill="#303030" points="52.805,128.665 4.49,128.665 27.979,145.629 	"/>
	<polygon fill="#303030" points="27.947,148.073 3.954,130.744 3.954,164.663 53.451,164.663 53.451,130.645 	"/>
	<polygon fill="#FFFFFF" points="53.451,130.645 53.451,128.665 52.805,128.665 27.979,145.629 4.49,128.665 3.954,128.665 
		3.954,130.744 27.947,148.073 	"/>
</g>
<g>
</g>
<g>
</g>
<g>
</g>
<g>
</g>
<g>
</g>
<g>
</g>
</svg>
